<?xml version="1.0" encoding="utf-8"?>
<!-- Generator: Adobe Illustrator 26.2.1, SVG Export Plug-In . SVG Version: 6.00 Build 0)  -->
<svg version="1.1" id="icon-fale-com-vendedor-cinza"
	 xmlns="http://www.w3.org/2000/svg" xmlns:xlink="http://www.w3.org/1999/xlink" x="0px" y="0px" viewBox="0 0 111.3 111.3"
	 style="enable-background:new 0 0 111.3 111.3;" xml:space="preserve">
<style type="text/css">
	.st0{fill:#D8D8D8;}
	.st1{clip-path:url(#SVGID_00000012436132152409630490000005896685753227616701_);}
	.st2{fill:#6E6E6E;}
</style>
<path id="Caminho_3425" class="st0" d="M55.7,1.1c30.1,0,54.5,24.4,54.5,54.5s-24.4,54.5-54.5,54.5S1.1,85.8,1.1,55.7c0,0,0,0,0,0
	C1.1,25.5,25.5,1.1,55.7,1.1 M55.7,0C24.9,0,0,24.9,0,55.7s24.9,55.7,55.7,55.7s55.7-24.9,55.7-55.7S86.4,0,55.7,0
	C55.7,0,55.7,0,55.7,0z"/>
<g id="Grupo_1880" transform="translate(0 0)">
	<g>
		<defs>
			<rect id="SVGID_1_" x="27.2" y="29.1" width="56.8" height="53"/>
		</defs>
		<clipPath id="SVGID_00000124141219981107307280000005897228307949691579_">
			<use xlink:href="#SVGID_1_"  style="overflow:visible;"/>
		</clipPath>
		
			<g id="Grupo_1879" transform="translate(0 0)" style="clip-path:url(#SVGID_00000124141219981107307280000005897228307949691579_);">
			<path id="Caminho_3455" class="st2" d="M66.6,58.5c-0.3-1-1.2-1.6-2.2-1.6H47c-1,0-1.9,0.6-2.2,1.6L41.4,68v12.6
				c0,0.9,0.7,1.6,1.6,1.6h1.6c0.9,0,1.6-0.7,1.6-1.6V79h18.9v1.6c0,0.9,0.7,1.6,1.6,1.6h1.6c0.9,0,1.6-0.7,1.6-1.6V68L66.6,58.5z
				 M48.7,73.2c-1,0-1.8-0.8-1.8-1.8c0-1,0.8-1.8,1.8-1.8c1,0,1.8,0.8,1.8,1.8C50.5,72.4,49.7,73.2,48.7,73.2
				C48.7,73.2,48.7,73.2,48.7,73.2 M62.6,73.2c-1,0-1.8-0.8-1.8-1.8s0.8-1.8,1.8-1.8c1,0,1.8,0.8,1.8,1.8
				C64.4,72.4,63.6,73.2,62.6,73.2 M46.9,66.4l1.9-6.1h13.8l1.9,6.1H46.9z"/>
			<path id="Caminho_3456" class="st2" d="M41.5,62.4l0.9-2.6h-11c-0.8,0-1.5,0.5-1.7,1.2l-2.5,7.3V78c0,0.7,0.5,1.2,1.2,1.2h1.2
				c0.7,0,1.2-0.5,1.2-1.2v-1.2h8.8v-9.2l0.2-0.6h-8.5l1.4-4.7H41.5z M32.7,69.5c0.9,0,1.6,0.7,1.6,1.6s-0.7,1.6-1.6,1.6
				s-1.6-0.7-1.6-1.6l0,0C31.1,70.3,31.9,69.5,32.7,69.5"/>
			<path id="Caminho_3457" class="st2" d="M81.6,61c-0.3-0.7-0.9-1.2-1.7-1.2h-11l0.9,2.6h8.7l1.5,4.7h-8.5l0.2,0.6v9.2h8.8V78
				c0,0.7,0.5,1.2,1.2,1.2h1.2c0.7,0,1.2-0.5,1.2-1.2v-9.7L81.6,61z M79,72.7c-0.9,0-1.6-0.7-1.6-1.6s0.7-1.6,1.6-1.6
				s1.6,0.7,1.6,1.6c0,0,0,0,0,0C80.6,72,79.9,72.7,79,72.7"/>
			<path id="Caminho_3458" class="st2" d="M55.7,51.9c2.4-3.1,7.8-11.1,7.8-15c0-4.3-3.6-7.7-7.9-7.7c-4.2,0-7.6,3.5-7.7,7.7
				C47.9,40.9,53.2,48.7,55.7,51.9 M55.6,34.8c1.3,0,2.3,1.1,2.3,2.3s-1.1,2.3-2.3,2.3c-1.3,0-2.3-1-2.3-2.3
				C53.3,35.9,54.3,34.8,55.6,34.8"/>
		</g>
	</g>
</g>
</svg>
