<?xml version="1.0" encoding="utf-8"?>
<!-- Generator: Adobe Illustrator 26.2.1, SVG Export Plug-In . SVG Version: 6.00 Build 0)  -->
<svg version="1.1" id="a" xmlns="http://www.w3.org/2000/svg" xmlns:xlink="http://www.w3.org/1999/xlink" x="0px" y="0px"
	 viewBox="0 0 103.8 97" style="enable-background:new 0 0 103.8 97;" xml:space="preserve">
<style type="text/css">
	.st0{fill:#FFFFFF;}
</style>
<g id="e" transform="translate(0 0)">
	<path id="f" class="st0" d="M71.9,53.8c-0.6-1.8-2.2-2.9-4.1-2.9H36.1c-1.8,0-3.5,1.2-4.1,2.9l-6,17.3v23.1c0,1.6,1.3,2.9,2.9,2.9
		h2.9c1.6,0,2.9-1.3,2.9-2.9v-2.9h34.6v2.9c0,1.6,1.3,2.9,2.9,2.9H75c1.6,0,2.9-1.3,2.9-2.9V71.1C77.9,71.1,71.9,53.8,71.9,53.8z
		 M39.2,80.7c-1.9,0-3.4-1.5-3.4-3.4s1.5-3.4,3.4-3.4s3.4,1.5,3.4,3.4C42.6,79.2,41.1,80.7,39.2,80.7L39.2,80.7 M64.6,80.7
		c-1.9,0-3.4-1.5-3.4-3.4s1.5-3.4,3.4-3.4c1.9,0,3.4,1.5,3.4,3.4C68,79.2,66.5,80.7,64.6,80.7 M35.9,68.2l3.5-11.1h25.3L68,68.2
		H35.9L35.9,68.2z"/>
	<path id="g" class="st0" d="M26.1,61l1.6-4.8h-20c-1.4,0-2.7,0.9-3.2,2.2L0,71.7v17.7c0,1.2,1,2.2,2.2,2.2h2.2c1.2,0,2.2-1,2.2-2.2
		v-2.2h16.1V70.5l0.4-1H7.6l2.6-8.5L26.1,61L26.1,61z M10,73.9c1.6,0,2.9,1.3,2.9,2.9s-1.3,2.9-2.9,2.9s-2.9-1.3-2.9-2.9l0,0
		C7.2,75.2,8.5,73.9,10,73.9"/>
	<path id="h" class="st0" d="M99.2,58.4c-0.5-1.3-1.7-2.2-3.2-2.2H76l1.6,4.8h15.9l2.6,8.5H80.6l0.4,1v16.7h16.2v2.2
		c0,1.2,1,2.2,2.2,2.2h2.2c1.2,0,2.2-1,2.2-2.2V71.7L99.2,58.4L99.2,58.4z M94.6,79.8c-1.6,0-2.9-1.3-2.9-2.9c0-1.6,1.3-2.9,2.9-2.9
		s2.9,1.3,2.9,2.9l0,0C97.4,78.5,96.1,79.8,94.6,79.8"/>
	<path id="i" class="st0" d="M51.9,41.7c4.3-5.7,14.2-20.3,14.2-27.5C66.1,6.4,59.8,0,51.9,0S37.7,6.4,37.7,14.2
		C37.7,21.6,47.4,35.9,51.9,41.7 M51.9,10.6c2.3,0,4.2,1.9,4.2,4.3S54.1,19,51.8,19c-2.3,0-4.2-1.9-4.2-4.2
		C47.6,12.5,49.5,10.6,51.9,10.6"/>
</g>
</svg>
