<?xml version="1.0" encoding="utf-8"?>
<!-- Generator: Adobe Illustrator 26.2.1, SVG Export Plug-In . SVG Version: 6.00 Build 0)  -->
<svg version="1.1" id="icon-fale-com-vendedor-cinza"
	 xmlns="http://www.w3.org/2000/svg" xmlns:xlink="http://www.w3.org/1999/xlink" x="0px" y="0px" viewBox="0 0 111.3 111.3"
	 style="enable-background:new 0 0 111.3 111.3;" xml:space="preserve">
<style type="text/css">
	.st0{fill:#D8D8D8;}
	.st1{fill:#6E6E6E;}
	.st2{clip-path:url(#SVGID_00000007410528642737939080000016057610398275413934_);}
</style>
<path id="Caminho_3425" class="st0" d="M55.7,1.1c30.1,0,54.5,24.4,54.5,54.5s-24.4,54.5-54.5,54.5S1.1,85.8,1.1,55.7l0,0
	C1.1,25.5,25.5,1.1,55.7,1.1 M55.7,0C24.9,0,0,24.9,0,55.7s24.9,55.7,55.7,55.7s55.7-24.9,55.7-55.7S86.4,0,55.7,0L55.7,0z"/>
<g id="Grupo_1834" transform="translate(25.686 25.686)">
	<path id="Caminho_3416" class="st1" d="M5.7,33.3L34.8,4.2h12.4l8.6,8.6v12.4L26.7,54.3L5.7,33.3z M33.3,0.7L0.7,33.3l26,26
		l32.6-32.6V11.3L48.7,0.7H33.3z"/>
	<g id="Grupo_1833" transform="translate(0 0)">
		<g>
			<g>
				<defs>
					<rect id="SVGID_1_" x="0.7" y="0.7" width="58.6" height="58.6"/>
				</defs>
				<clipPath id="SVGID_00000067200258546720214340000016628605889369448581_">
					<use xlink:href="#SVGID_1_"  style="overflow:visible;"/>
				</clipPath>
				<g id="Grupo_1832" style="clip-path:url(#SVGID_00000067200258546720214340000016628605889369448581_);">
					<path id="Caminho_3417" class="st1" d="M44,12.9c0,1.5,1.3,2.8,2.8,2.8s2.8-1.3,2.8-2.8s-1.3-2.8-2.8-2.8l0,0
						C45.2,10.1,44,11.3,44,12.9"/>
					<path id="Caminho_3418" class="st1" d="M42.2,16.4l-2.8,2.8c-3.5-2.9-7.8-3.3-11-0.2c-3.7,3.7-2.3,7.5-0.3,12.3
						c0.9,2.2,1.1,3.6-0.4,5.1c-0.9,1.1-2.5,1.3-3.6,0.4c-0.1-0.1-0.2-0.2-0.3-0.3c-1.8-1.8-1.3-3.9,0.5-5.7l-4.6-4.4
						c-3.6,3.6-4,8-0.4,12.5l-2.7,2.7l2.1,2.1l2.7-2.7c3.5,2.8,7.6,3.2,10.8,0c3.6-3.6,2.3-7.6,0.4-12.3c-0.4-1-0.7-2-0.7-3
						c0-0.8,0.4-1.6,1-2.1c1.3-1.2,2.7-1.4,3.9-0.2c1.5,1.5,0.7,3.4-0.8,4.9l4.5,4.5c3.4-3.4,3.7-7.7,1-11.4l2.9-2.9L42.2,16.4z"/>
				</g>
			</g>
		</g>
	</g>
</g>
</svg>
