<?xml version="1.0" encoding="utf-8"?>
<!-- Generator: Adobe Illustrator 25.3.1, SVG Export Plug-In . SVG Version: 6.00 Build 0)  -->
<svg version="1.1" id="Camada_1" xmlns="http://www.w3.org/2000/svg" xmlns:xlink="http://www.w3.org/1999/xlink" x="0px" y="0px"
	 viewBox="0 0 26 26" style="enable-background:new 0 0 26 26;" xml:space="preserve">
<style type="text/css">
	.st0{fill:#B3B3B3;}
</style>
<g transform="matrix(1,0,0,1,-499,-501)">
</g>
<path class="st0" d="M20.9,11.5c-0.2,0-0.3,0-0.5,0c-1.8,0-3.5-0.9-4.5-2.4v8.3c0,3.4-2.7,6.1-6.1,6.1c-3.4,0-6.1-2.7-6.1-6.1
	c0-3.4,2.7-6.1,6.1-6.1l0,0c0.1,0,0.3,0,0.4,0v3c-0.1,0-0.2,0-0.4,0c-1.7,0-3.1,1.4-3.1,3.1c0,1.7,1.4,3.1,3.1,3.1
	c1.7,0,3.3-1.4,3.3-3.1l0-14.1h2.9c0.3,2.6,2.4,4.6,5,4.8L20.9,11.5"/>
</svg>
