<?xml version="1.0" encoding="utf-8"?>
<!-- Generator: Adobe Illustrator 26.2.1, SVG Export Plug-In . SVG Version: 6.00 Build 0)  -->
<svg version="1.1" id="icon-fale-com-vendedor-cinza"
	 xmlns="http://www.w3.org/2000/svg" xmlns:xlink="http://www.w3.org/1999/xlink" x="0px" y="0px" viewBox="0 0 111.3 111.3"
	 style="enable-background:new 0 0 111.3 111.3;" xml:space="preserve">
<style type="text/css">
	.st0{fill:#D8D8D8;}
	.st1{fill:#6E6E6E;}
</style>
<path id="Caminho_3425" class="st0" d="M55.7,1.1c30.1,0,54.5,24.4,54.5,54.5s-24.4,54.5-54.5,54.5S1.1,85.8,1.1,55.7l0,0
	C1.1,25.5,25.5,1.1,55.7,1.1 M55.7,0C24.9,0,0,24.9,0,55.7s24.9,55.7,55.7,55.7s55.7-24.9,55.7-55.7S86.4,0,55.7,0L55.7,0z"/>
<g id="Grupo_1853" transform="translate(28.148 27.162)">
	<path id="Caminho_3426" class="st1" d="M27.7,0C12,0-0.7,12.7-0.7,28.3c0,4.9,1.3,9.7,3.7,14C2.6,44.1-1,57-1,57s13.2-3.5,14.9-3.9
		c13.7,7.6,30.9,2.7,38.5-11s2.7-30.9-11-38.5C37.2,1.2,32.5,0,27.7,0L27.7,0z M27.7,51.7c-4.6,0-9.1-1.3-12.9-3.9
		c-2.6,0.7-8.9,2.3-8.9,2.3s1.6-5.7,2.4-8.7C1,30.8,3.8,16.3,14.5,9S39.8,4.5,47,15.2s4.5,25.2-6.2,32.5
		C37,50.3,32.4,51.8,27.7,51.7L27.7,51.7z"/>
	<path id="Caminho_3427" class="st1" d="M20.7,27.1c1.1,1.7,2.4,3.3,3.8,4.7c1.7,1.5,3.6,2.7,5.7,3.5c1.1,0.4,1.3,0.1,1.7-0.3
		s1.6-2,2.1-2.7c0.5-0.7,1-0.6,1.7-0.3s5.4,2.5,5.4,2.5c0.6,0.3,0.9,0.9,0.8,1.5c-0.1,1.1-0.4,2.1-0.9,3c-0.9,1.3-2.2,2.2-3.7,2.6
		c-1.3,0.4-4.2,0.5-8.9-1.5c-3-1.2-5.7-3.1-8-5.4c-2.7-2.6-5.9-7.3-6.5-9.3c-0.6-1.6-0.7-3.3-0.4-4.9c0.3-1.4,1-2.7,2-3.8
		c0.5-0.7,1.3-1.1,2.2-1.2H19c0.7-0.1,1.3,0.4,1.5,1c0.2,0.4,1.9,4.6,2.2,5.3c0.3,0.5,0.3,1.2,0,1.7c-0.5,0.8-1,1.5-1.7,2.1
		C20.1,26.2,20.5,26.7,20.7,27.1z"/>
</g>
</svg>
